<mxfile host="app.diagrams.net" modified="2022-11-07T09:31:52.395Z" agent="5.0 (Windows NT 10.0; Win64; x64) AppleWebKit/537.36 (KHTML, like Gecko) Chrome/107.0.0.0 Safari/537.36" etag="2tyXKMryHV_HZKb49Nfq" version="20.5.1" type="github">
  <diagram id="kgpKYQtTHZ0yAKxKKP6v" name="Page-1">
    <mxGraphModel dx="673" dy="405" grid="0" gridSize="10" guides="1" tooltips="1" connect="1" arrows="1" fold="1" page="1" pageScale="1" pageWidth="850" pageHeight="1100" math="0" shadow="0">
      <root>
        <mxCell id="0" />
        <mxCell id="1" parent="0" />
        <mxCell id="3nuBFxr9cyL0pnOWT2aG-1" value=":Object" style="shape=umlLifeline;perimeter=lifelinePerimeter;container=1;collapsible=0;recursiveResize=0;rounded=0;shadow=0;strokeWidth=1;" parent="1" vertex="1">
          <mxGeometry x="120" y="80" width="100" height="300" as="geometry" />
        </mxCell>
        <mxCell id="3nuBFxr9cyL0pnOWT2aG-2" value="" style="points=[];perimeter=orthogonalPerimeter;rounded=0;shadow=0;strokeWidth=1;" parent="3nuBFxr9cyL0pnOWT2aG-1" vertex="1">
          <mxGeometry x="45" y="70" width="10" height="190" as="geometry" />
        </mxCell>
        <mxCell id="3nuBFxr9cyL0pnOWT2aG-3" value="dispatch" style="verticalAlign=bottom;startArrow=oval;endArrow=block;startSize=8;shadow=0;strokeWidth=1;" parent="3nuBFxr9cyL0pnOWT2aG-1" target="3nuBFxr9cyL0pnOWT2aG-2" edge="1">
          <mxGeometry relative="1" as="geometry">
            <mxPoint x="-15" y="70" as="sourcePoint" />
          </mxGeometry>
        </mxCell>
        <mxCell id="3nuBFxr9cyL0pnOWT2aG-4" value="" style="points=[];perimeter=orthogonalPerimeter;rounded=0;shadow=0;strokeWidth=1;" parent="3nuBFxr9cyL0pnOWT2aG-1" vertex="1">
          <mxGeometry x="50" y="120" width="10" height="80" as="geometry" />
        </mxCell>
        <mxCell id="3nuBFxr9cyL0pnOWT2aG-5" value=":Object" style="shape=umlLifeline;perimeter=lifelinePerimeter;container=1;collapsible=0;recursiveResize=0;rounded=0;shadow=0;strokeWidth=1;" parent="1" vertex="1">
          <mxGeometry x="300" y="80" width="100" height="300" as="geometry" />
        </mxCell>
        <mxCell id="3nuBFxr9cyL0pnOWT2aG-6" value="" style="points=[];perimeter=orthogonalPerimeter;rounded=0;shadow=0;strokeWidth=1;" parent="3nuBFxr9cyL0pnOWT2aG-5" vertex="1">
          <mxGeometry x="45" y="80" width="10" height="160" as="geometry" />
        </mxCell>
        <mxCell id="3nuBFxr9cyL0pnOWT2aG-7" value="return" style="verticalAlign=bottom;endArrow=open;dashed=1;endSize=8;exitX=0;exitY=0.95;shadow=0;strokeWidth=1;" parent="1" source="3nuBFxr9cyL0pnOWT2aG-6" target="3nuBFxr9cyL0pnOWT2aG-2" edge="1">
          <mxGeometry relative="1" as="geometry">
            <mxPoint x="275" y="236" as="targetPoint" />
          </mxGeometry>
        </mxCell>
        <mxCell id="3nuBFxr9cyL0pnOWT2aG-8" value="dispatch" style="verticalAlign=bottom;endArrow=block;entryX=0;entryY=0;shadow=0;strokeWidth=1;" parent="1" source="3nuBFxr9cyL0pnOWT2aG-2" target="3nuBFxr9cyL0pnOWT2aG-6" edge="1">
          <mxGeometry relative="1" as="geometry">
            <mxPoint x="275" y="160" as="sourcePoint" />
          </mxGeometry>
        </mxCell>
        <mxCell id="3nuBFxr9cyL0pnOWT2aG-9" value="callback" style="verticalAlign=bottom;endArrow=block;entryX=1;entryY=0;shadow=0;strokeWidth=1;" parent="1" source="3nuBFxr9cyL0pnOWT2aG-6" target="3nuBFxr9cyL0pnOWT2aG-4" edge="1">
          <mxGeometry relative="1" as="geometry">
            <mxPoint x="240" y="200" as="sourcePoint" />
          </mxGeometry>
        </mxCell>
        <mxCell id="3nuBFxr9cyL0pnOWT2aG-10" value="return" style="verticalAlign=bottom;endArrow=open;dashed=1;endSize=8;exitX=1;exitY=0.95;shadow=0;strokeWidth=1;" parent="1" source="3nuBFxr9cyL0pnOWT2aG-4" target="3nuBFxr9cyL0pnOWT2aG-6" edge="1">
          <mxGeometry relative="1" as="geometry">
            <mxPoint x="240" y="257" as="targetPoint" />
          </mxGeometry>
        </mxCell>
        <mxCell id="njkM3sNc2ABnfKQGHnfC-10" value="" style="shape=crossbar;whiteSpace=wrap;html=1;rounded=1;" vertex="1" parent="1">
          <mxGeometry x="80" y="470" width="100" height="20" as="geometry" />
        </mxCell>
        <mxCell id="njkM3sNc2ABnfKQGHnfC-11" value="..." style="shape=crossbar;whiteSpace=wrap;html=1;rounded=1;labelBackgroundColor=default;verticalAlign=middle;" vertex="1" parent="1">
          <mxGeometry x="180" y="470" width="240" height="20" as="geometry" />
        </mxCell>
        <mxCell id="njkM3sNc2ABnfKQGHnfC-14" value="..." style="shape=crossbar;whiteSpace=wrap;html=1;rounded=1;labelBackgroundColor=default;" vertex="1" parent="1">
          <mxGeometry x="420" y="470" width="120" height="20" as="geometry" />
        </mxCell>
        <mxCell id="njkM3sNc2ABnfKQGHnfC-15" value="Sep 03" style="text;html=1;align=center;verticalAlign=middle;resizable=0;points=[];autosize=1;strokeColor=none;fillColor=none;" vertex="1" parent="1">
          <mxGeometry x="50" y="440" width="60" height="30" as="geometry" />
        </mxCell>
        <mxCell id="njkM3sNc2ABnfKQGHnfC-18" value="Sep 05" style="text;html=1;align=center;verticalAlign=middle;resizable=0;points=[];autosize=1;strokeColor=none;fillColor=none;" vertex="1" parent="1">
          <mxGeometry x="150" y="440" width="60" height="30" as="geometry" />
        </mxCell>
        <mxCell id="njkM3sNc2ABnfKQGHnfC-19" value="Otorgamiento de DDMM" style="rounded=1;whiteSpace=wrap;html=1;labelBackgroundColor=default;" vertex="1" parent="1">
          <mxGeometry x="30" y="490" width="100" height="40" as="geometry" />
        </mxCell>
        <mxCell id="njkM3sNc2ABnfKQGHnfC-20" value="Presentación de documentos a EsSalud" style="rounded=1;whiteSpace=wrap;html=1;labelBackgroundColor=default;" vertex="1" parent="1">
          <mxGeometry x="150" y="490" width="100" height="50" as="geometry" />
        </mxCell>
        <mxCell id="njkM3sNc2ABnfKQGHnfC-21" value="Oct 20" style="text;html=1;align=center;verticalAlign=middle;resizable=0;points=[];autosize=1;strokeColor=none;fillColor=none;" vertex="1" parent="1">
          <mxGeometry x="390" y="440" width="60" height="30" as="geometry" />
        </mxCell>
        <mxCell id="njkM3sNc2ABnfKQGHnfC-22" value="EsSalud evalúa revisión la documentación" style="rounded=1;whiteSpace=wrap;html=1;labelBackgroundColor=default;" vertex="1" parent="1">
          <mxGeometry x="340" y="490" width="100" height="50" as="geometry" />
        </mxCell>
        <mxCell id="njkM3sNc2ABnfKQGHnfC-23" value="Nov 06" style="text;html=1;align=center;verticalAlign=middle;resizable=0;points=[];autosize=1;strokeColor=none;fillColor=none;" vertex="1" parent="1">
          <mxGeometry x="510" y="440" width="60" height="30" as="geometry" />
        </mxCell>
        <mxCell id="njkM3sNc2ABnfKQGHnfC-24" value="Otorgamiento de CITT" style="rounded=1;whiteSpace=wrap;html=1;labelBackgroundColor=default;" vertex="1" parent="1">
          <mxGeometry x="490" y="490" width="100" height="40" as="geometry" />
        </mxCell>
        <mxCell id="njkM3sNc2ABnfKQGHnfC-25" value="" style="shape=crossbar;whiteSpace=wrap;html=1;rounded=1;" vertex="1" parent="1">
          <mxGeometry x="80" y="621" width="100" height="20" as="geometry" />
        </mxCell>
        <mxCell id="njkM3sNc2ABnfKQGHnfC-26" value="..." style="shape=crossbar;whiteSpace=wrap;html=1;rounded=1;labelBackgroundColor=default;verticalAlign=middle;" vertex="1" parent="1">
          <mxGeometry x="180" y="621" width="240" height="20" as="geometry" />
        </mxCell>
        <mxCell id="njkM3sNc2ABnfKQGHnfC-27" value="..." style="shape=crossbar;whiteSpace=wrap;html=1;rounded=1;labelBackgroundColor=default;" vertex="1" parent="1">
          <mxGeometry x="420" y="621" width="120" height="20" as="geometry" />
        </mxCell>
        <mxCell id="njkM3sNc2ABnfKQGHnfC-28" value="Ago 06" style="text;html=1;align=center;verticalAlign=middle;resizable=0;points=[];autosize=1;strokeColor=none;fillColor=none;" vertex="1" parent="1">
          <mxGeometry x="50" y="591" width="60" height="30" as="geometry" />
        </mxCell>
        <mxCell id="njkM3sNc2ABnfKQGHnfC-29" value="Ago 25" style="text;html=1;align=center;verticalAlign=middle;resizable=0;points=[];autosize=1;strokeColor=none;fillColor=none;" vertex="1" parent="1">
          <mxGeometry x="150" y="591" width="60" height="30" as="geometry" />
        </mxCell>
        <mxCell id="njkM3sNc2ABnfKQGHnfC-30" value="Otorgamiento de DDMM" style="rounded=1;whiteSpace=wrap;html=1;labelBackgroundColor=default;" vertex="1" parent="1">
          <mxGeometry x="30" y="641" width="100" height="40" as="geometry" />
        </mxCell>
        <mxCell id="njkM3sNc2ABnfKQGHnfC-31" value="Presentación de documentos a EsSalud" style="rounded=1;whiteSpace=wrap;html=1;labelBackgroundColor=default;" vertex="1" parent="1">
          <mxGeometry x="150" y="641" width="100" height="50" as="geometry" />
        </mxCell>
        <mxCell id="njkM3sNc2ABnfKQGHnfC-32" value="Oct 18" style="text;html=1;align=center;verticalAlign=middle;resizable=0;points=[];autosize=1;strokeColor=none;fillColor=none;" vertex="1" parent="1">
          <mxGeometry x="390" y="591" width="60" height="30" as="geometry" />
        </mxCell>
        <mxCell id="njkM3sNc2ABnfKQGHnfC-33" value="EsSalud evalúa revisión la documentación" style="rounded=1;whiteSpace=wrap;html=1;labelBackgroundColor=default;" vertex="1" parent="1">
          <mxGeometry x="340" y="641" width="100" height="50" as="geometry" />
        </mxCell>
        <mxCell id="njkM3sNc2ABnfKQGHnfC-34" value="Nov 06" style="text;html=1;align=center;verticalAlign=middle;resizable=0;points=[];autosize=1;strokeColor=none;fillColor=none;" vertex="1" parent="1">
          <mxGeometry x="510" y="591" width="60" height="30" as="geometry" />
        </mxCell>
      </root>
    </mxGraphModel>
  </diagram>
</mxfile>
